<svg width="36" height="36" viewBox="0 0 36 36" fill="none" xmlns="http://www.w3.org/2000/svg">
<g clip-path="url(#clip0_61_60)" filter="url(#filter0_d_61_60)">
<path d="M28.9563 20.5146C28.6007 20.7005 28.2341 20.8644 27.8584 21.0052C26.6625 21.4527 25.3956 21.6806 24.1188 21.6781C19.1896 21.6781 14.8959 18.2875 14.8959 13.9365C14.9022 13.3529 15.0641 12.7816 15.365 12.2815C15.6658 11.7814 16.0947 11.3707 16.6073 11.0917C12.149 11.2792 11.0032 15.925 11.0032 18.6469C11.0032 26.3427 18.0959 27.1229 19.624 27.1229C20.448 27.1229 21.6907 26.8833 22.4365 26.6479L22.573 26.6021C25.443 25.6099 27.8897 23.6701 29.5105 21.1021C29.5601 21.0239 29.5823 20.9314 29.5734 20.8392C29.5646 20.7469 29.5253 20.6603 29.4618 20.5929C29.3982 20.5255 29.314 20.4812 29.2225 20.4671C29.1309 20.4529 29.0373 20.4696 28.9563 20.5146Z" fill="url(#paint0_linear_61_60)"/>
<path opacity="0.35" d="M28.9563 20.5146C28.6007 20.7005 28.2341 20.8644 27.8584 21.0052C26.6625 21.4527 25.3956 21.6806 24.1188 21.6781C19.1896 21.6781 14.8959 18.2875 14.8959 13.9365C14.9022 13.3529 15.0641 12.7816 15.365 12.2815C15.6658 11.7814 16.0947 11.3707 16.6073 11.0917C12.149 11.2792 11.0032 15.925 11.0032 18.6469C11.0032 26.3427 18.0959 27.1229 19.624 27.1229C20.448 27.1229 21.6907 26.8833 22.4365 26.6479L22.573 26.6021C25.443 25.6099 27.8897 23.6701 29.5105 21.1021C29.5601 21.0239 29.5823 20.9314 29.5734 20.8392C29.5646 20.7469 29.5253 20.6603 29.4618 20.5929C29.3982 20.5255 29.314 20.4812 29.2225 20.4671C29.1309 20.4529 29.0373 20.4696 28.9563 20.5146Z" fill="url(#paint1_radial_61_60)"/>
<path d="M15.9001 25.8144C14.971 25.2378 14.1658 24.4821 13.5314 23.5915C12.8083 22.6008 12.3106 21.4638 12.0734 20.2604C11.8362 19.0569 11.8652 17.8162 12.1583 16.6251C12.4514 15.4341 13.0015 14.3216 13.7701 13.3657C14.5387 12.4097 15.5071 11.6335 16.6074 11.0915C16.9324 10.9384 17.4876 10.6613 18.2262 10.6748C18.7465 10.6786 19.2589 10.8029 19.7232 11.0378C20.1874 11.2727 20.591 11.612 20.9022 12.029C21.3229 12.5907 21.5548 13.2711 21.5647 13.9728C21.5647 13.9509 24.1126 5.68109 13.2314 5.68109C8.65847 5.68109 4.89806 10.0207 4.89806 13.828C4.88002 15.842 5.31095 17.8347 6.15952 19.6613C7.54632 22.6202 9.97145 24.9669 12.9744 26.2556C15.9774 27.5443 19.349 27.6853 22.4491 26.6519C21.3636 26.9942 20.2169 27.0969 19.0878 26.953C17.9588 26.8092 16.8745 26.4221 15.9095 25.8186L15.9001 25.8144Z" fill="url(#paint2_linear_61_60)"/>
<path opacity="0.41" d="M15.9001 25.8144C14.971 25.2378 14.1658 24.4821 13.5314 23.5915C12.8083 22.6008 12.3106 21.4638 12.0734 20.2604C11.8362 19.0569 11.8652 17.8162 12.1583 16.6251C12.4514 15.4341 13.0015 14.3216 13.7701 13.3657C14.5387 12.4097 15.5071 11.6335 16.6074 11.0915C16.9324 10.9384 17.4876 10.6613 18.2262 10.6748C18.7465 10.6786 19.2589 10.8029 19.7232 11.0378C20.1874 11.2727 20.591 11.612 20.9022 12.029C21.3229 12.5907 21.5548 13.2711 21.5647 13.9728C21.5647 13.9509 24.1126 5.68109 13.2314 5.68109C8.65847 5.68109 4.89806 10.0207 4.89806 13.828C4.88002 15.842 5.31095 17.8347 6.15952 19.6613C7.54632 22.6202 9.97145 24.9669 12.9744 26.2556C15.9774 27.5443 19.349 27.6853 22.4491 26.6519C21.3636 26.9942 20.2169 27.0969 19.0878 26.953C17.9588 26.8092 16.8745 26.4221 15.9095 25.8186L15.9001 25.8144Z" fill="url(#paint3_radial_61_60)"/>
<path d="M20.7555 16.1728C20.6712 16.2822 20.4118 16.4333 20.4118 16.7624C20.4118 17.0343 20.5889 17.2958 20.9035 17.5156C22.4014 18.5572 25.2253 18.4197 25.2326 18.4197C26.3426 18.4171 27.4314 18.1167 28.3858 17.5499C29.3485 16.9878 30.1475 16.1837 30.7035 15.2175C31.2595 14.2512 31.5533 13.1564 31.5555 12.0416C31.5826 9.70722 30.7222 8.15514 30.3743 7.46764C28.167 3.14993 23.4024 0.666596 18.2212 0.666596C14.7172 0.666249 11.3539 2.04524 8.85876 4.50532C6.3636 6.96539 4.93712 10.3088 4.88784 13.8124C4.93784 10.0062 8.72117 6.93222 13.2212 6.93222C13.5858 6.93222 15.6649 6.96764 17.5962 7.98118C19.2983 8.87493 20.1899 9.95409 20.8097 11.0239C21.4535 12.1353 21.568 13.5395 21.568 14.0989C21.568 14.6583 21.2826 15.4874 20.7555 16.1728Z" fill="url(#paint4_radial_61_60)"/>
<path d="M20.7555 16.1728C20.6712 16.2822 20.4118 16.4333 20.4118 16.7624C20.4118 17.0343 20.5889 17.2958 20.9035 17.5156C22.4014 18.5572 25.2253 18.4197 25.2326 18.4197C26.3426 18.4171 27.4314 18.1167 28.3858 17.5499C29.3485 16.9878 30.1475 16.1837 30.7035 15.2175C31.2595 14.2512 31.5533 13.1564 31.5555 12.0416C31.5826 9.70722 30.7222 8.15514 30.3743 7.46764C28.167 3.14993 23.4024 0.666596 18.2212 0.666596C14.7172 0.666249 11.3539 2.04524 8.85876 4.50532C6.3636 6.96539 4.93712 10.3088 4.88784 13.8124C4.93784 10.0062 8.72117 6.93222 13.2212 6.93222C13.5858 6.93222 15.6649 6.96764 17.5962 7.98118C19.2983 8.87493 20.1899 9.95409 20.8097 11.0239C21.4535 12.1353 21.568 13.5395 21.568 14.0989C21.568 14.6583 21.2826 15.4874 20.7555 16.1728Z" fill="url(#paint5_radial_61_60)"/>
</g>
<defs>
<filter id="filter0_d_61_60" x="0.888794" y="0.666595" width="34.6667" height="34.6667" filterUnits="userSpaceOnUse" color-interpolation-filters="sRGB">
<feFlood flood-opacity="0" result="BackgroundImageFix"/>
<feColorMatrix in="SourceAlpha" type="matrix" values="0 0 0 0 0 0 0 0 0 0 0 0 0 0 0 0 0 0 127 0" result="hardAlpha"/>
<feOffset dy="4"/>
<feGaussianBlur stdDeviation="2"/>
<feComposite in2="hardAlpha" operator="out"/>
<feColorMatrix type="matrix" values="0 0 0 0 0 0 0 0 0 0 0 0 0 0 0 0 0 0 0.25 0"/>
<feBlend mode="normal" in2="BackgroundImageFix" result="effect1_dropShadow_61_60"/>
<feBlend mode="normal" in="SourceGraphic" in2="effect1_dropShadow_61_60" result="shape"/>
</filter>
<linearGradient id="paint0_linear_61_60" x1="11.0032" y1="19.1094" x2="29.5802" y2="19.1094" gradientUnits="userSpaceOnUse">
<stop stop-color="#0C59A4"/>
<stop offset="1" stop-color="#114A8B"/>
</linearGradient>
<radialGradient id="paint1_radial_61_60" cx="0" cy="0" r="1" gradientUnits="userSpaceOnUse" gradientTransform="translate(21.2636 19.2558) scale(9.93541 9.43865)">
<stop offset="0.72" stop-opacity="0"/>
<stop offset="0.95" stop-opacity="0.53"/>
<stop offset="1"/>
</radialGradient>
<linearGradient id="paint2_linear_61_60" x1="20.797" y1="11.0509" x2="9.19389" y2="23.6894" gradientUnits="userSpaceOnUse">
<stop stop-color="#1B9DE2"/>
<stop offset="0.16" stop-color="#1595DF"/>
<stop offset="0.67" stop-color="#0680D7"/>
<stop offset="1" stop-color="#0078D4"/>
</linearGradient>
<radialGradient id="paint3_radial_61_60" cx="0" cy="0" r="1" gradientUnits="userSpaceOnUse" gradientTransform="translate(12.2402 21.3965) rotate(-81.3844) scale(14.9402 12.0702)">
<stop offset="0.76" stop-opacity="0"/>
<stop offset="0.95" stop-opacity="0.5"/>
<stop offset="1"/>
</radialGradient>
<radialGradient id="paint4_radial_61_60" cx="0" cy="0" r="1" gradientUnits="userSpaceOnUse" gradientTransform="translate(7.58185 5.60168) rotate(92.2906) scale(21.1033 44.9457)">
<stop stop-color="#35C1F1"/>
<stop offset="0.11" stop-color="#34C1ED"/>
<stop offset="0.23" stop-color="#2FC2DF"/>
<stop offset="0.31" stop-color="#2BC3D2"/>
<stop offset="0.67" stop-color="#36C752"/>
</radialGradient>
<radialGradient id="paint5_radial_61_60" cx="0" cy="0" r="1" gradientUnits="userSpaceOnUse" gradientTransform="translate(29.8954 8.72973) rotate(73.7398) scale(10.1396 8.24551)">
<stop stop-color="#66EB6E"/>
<stop offset="1" stop-color="#66EB6E" stop-opacity="0"/>
</radialGradient>
<clipPath id="clip0_61_60">
<rect width="26.6667" height="26.6667" fill="white" transform="translate(4.88879 0.666595)"/>
</clipPath>
</defs>
</svg>
