<svg viewBox="0 0 29 28" fill="none" xmlns="http://www.w3.org/2000/svg">
<g clip-path="url(#clip0_61_69)">
<path d="M27.5855 0.666687H8.02947C7.35457 0.666687 6.80746 1.2138 6.80746 1.88869V7.33335L18.1408 10.6667L28.8075 7.33335V1.88869C28.8075 1.2138 28.2604 0.666687 27.5855 0.666687Z" fill="#41A5EE"/>
<path d="M28.8075 7.33325H6.80746V13.9999L18.1408 15.9999L28.8075 13.9999V7.33325Z" fill="#2B7CD3"/>
<path d="M6.80746 14.0001V20.6668L17.4741 22.0001L28.8075 20.6668V14.0001H6.80746Z" fill="#185ABD"/>
<path d="M8.02948 27.3334H27.5856C28.2605 27.3334 28.8076 26.7862 28.8076 26.1114V20.6667H6.80746V26.1114C6.80746 26.7862 7.35458 27.3334 8.02948 27.3334Z" fill="#103F91"/>
<path opacity="0.1" d="M14.9188 6.00009H6.80746V22.6668H14.9188C15.5928 22.6646 16.1386 22.1187 16.1408 21.4448V7.2221C16.1386 6.54811 15.5928 6.00229 14.9188 6.00009Z" fill="#2F2F2F"/>
<path opacity="0.2" d="M14.2521 6.66669H6.80746V23.3334H14.2521C14.926 23.3312 15.4719 22.7853 15.4741 22.1114V7.88869C15.4719 7.21471 14.926 6.66888 14.2521 6.66669Z" fill="#2F2F2F"/>
<path opacity="0.2" d="M14.2521 6.66669H6.80746V22H14.2521C14.926 21.9978 15.4719 21.452 15.4741 20.778V7.88869C15.4719 7.21471 14.926 6.66888 14.2521 6.66669Z" fill="#2F2F2F"/>
<path opacity="0.2" d="M13.5855 6.66669H6.80746V22H13.5855C14.2594 21.9978 14.8053 21.452 14.8075 20.778V7.88869C14.8053 7.21471 14.2594 6.66888 13.5855 6.66669Z" fill="#2F2F2F"/>
<path d="M1.36282 6.66669H13.5855C14.2604 6.66669 14.8075 7.2138 14.8075 7.88869V20.1114C14.8075 20.7863 14.2604 21.3334 13.5855 21.3334H1.36282C0.687924 21.3334 0.140816 20.7863 0.140816 20.1114V7.88869C0.140816 7.2138 0.687924 6.66669 1.36282 6.66669Z" fill="url(#paint0_linear_61_69)"/>
<path d="M5.15562 16.0385C5.17962 16.2271 5.19562 16.3911 5.20295 16.5318H5.23094C5.24161 16.3985 5.26383 16.2378 5.29761 16.0498C5.33139 15.8618 5.36184 15.7029 5.38895 15.5731L6.67428 10.0278H8.33628L9.66962 15.4898C9.74709 15.8294 9.80254 16.1737 9.83562 16.5205H9.85763C9.88248 16.1845 9.9288 15.8505 9.99629 15.5205L11.0596 10.0251H12.5723L10.7043 17.9718H8.93695L7.67029 12.7091C7.63362 12.5578 7.59163 12.3598 7.54563 12.1164C7.49962 11.8731 7.47096 11.6951 7.45962 11.5831H7.43762C7.42296 11.7124 7.39428 11.9044 7.35161 12.1591C7.30895 12.4138 7.27472 12.6022 7.24894 12.7244L6.05826 17.9705H4.26093L2.38294 10.0277H3.92293L5.08094 15.5844C5.10695 15.6985 5.13162 15.8505 5.15562 16.0385Z" fill="white"/>
</g>
<defs>
<linearGradient id="paint0_linear_61_69" x1="2.68871" y1="5.71184" x2="12.2596" y2="22.2882" gradientUnits="userSpaceOnUse">
<stop stop-color="#2368C4"/>
<stop offset="0.5" stop-color="#1A5DBE"/>
<stop offset="1" stop-color="#1146AC"/>
</linearGradient>
<clipPath id="clip0_61_69">
<rect width="28.6667" height="26.6667" fill="white" transform="translate(0.140839 0.666595)"/>
</clipPath>
</defs>
</svg>
