<svg width="32" height="32" viewBox="0 0 32 32" fill="none" xmlns="http://www.w3.org/2000/svg">
<path d="M16.6782 5.00012C16.9919 5.00012 17.1263 5.13454 17.1263 5.13454V13.5582C17.1263 13.603 16.9471 13.7374 16.6782 13.7374H16.6334C16.3646 13.7374 16.2302 13.603 16.1854 13.603V5.13454C16.2302 5.08974 16.4094 5.00012 16.6782 5.00012Z" fill="#2F2F2F" stroke="#2F2F2F" stroke-miterlimit="10"/>
<path d="M16.4541 27C11.2565 27 6.99991 22.7434 6.99991 17.5459C6.99991 13.8269 8.92659 10.6008 12.0182 9.0326C12.0631 9.0326 12.1079 8.98779 12.1527 8.98779C12.1975 8.98779 12.1975 8.98779 12.2423 8.98779C12.3319 9.0326 12.3767 9.07741 12.4215 9.16702C12.4663 9.25663 12.4663 9.34624 12.4215 9.39105C12.3767 9.48066 12.3319 9.52547 12.2423 9.57028C9.37466 11.0041 7.58239 14.0509 7.58239 17.501C7.58239 22.385 11.5254 26.3279 16.4093 26.3279C21.2932 26.3279 25.2362 22.385 25.2362 17.501C25.2362 14.0509 23.4439 11.0489 20.6211 9.57028C20.4867 9.48067 20.3971 9.30144 20.4867 9.16702C20.5763 9.0326 20.7555 8.94299 20.89 9.0326C23.9368 10.6008 25.8635 13.8269 25.8635 17.501C25.9083 22.7882 21.6517 27 16.4541 27Z" fill="#2F2F2F" stroke="#2F2F2F" stroke-miterlimit="10"/>
</svg>
