<svg width="16" height="16" viewBox="0 0 16 16" fill="none" xmlns="http://www.w3.org/2000/svg">
<path d="M6.00195 11.498C6.00195 11.3613 6.05078 11.2441 6.14844 11.1465L9.29492 8L6.14844 4.85352C6.05078 4.75586 6.00195 4.63867 6.00195 4.50195C6.00195 4.36523 6.04883 4.24805 6.14258 4.15039C6.24023 4.04883 6.35938 3.99805 6.5 3.99805C6.63672 3.99805 6.75391 4.04688 6.85156 4.14453L10.3555 7.64844C10.4531 7.74609 10.502 7.86328 10.502 8C10.502 8.13672 10.4531 8.25391 10.3555 8.35156L6.85156 11.8555C6.75391 11.9531 6.63672 12.002 6.5 12.002C6.35938 12.002 6.24023 11.9531 6.14258 11.8555C6.04883 11.7539 6.00195 11.6348 6.00195 11.498Z" fill="black" fill-opacity="0.6063"/>
</svg>
