<svg width="14" height="14" viewBox="0 0 14 14" fill="none" xmlns="http://www.w3.org/2000/svg">
<path d="M14 6.5625C14 6.68099 13.9567 6.78353 13.8701 6.87012C13.7835 6.95671 13.681 7 13.5625 7H1.49707L6.87012 12.3799C6.95671 12.4665 7 12.569 7 12.6875C7 12.806 6.95671 12.9085 6.87012 12.9951C6.78353 13.0817 6.68099 13.125 6.5625 13.125C6.44401 13.125 6.34147 13.0817 6.25488 12.9951L0.150391 6.89062C0.10026 6.84049 0.0615234 6.79036 0.0341797 6.74023C0.0113932 6.6901 0 6.63086 0 6.5625C0 6.49414 0.0113932 6.4349 0.0341797 6.38477C0.0615234 6.33464 0.10026 6.28451 0.150391 6.23438L6.25488 0.129883C6.34147 0.0432943 6.44401 0 6.5625 0C6.68099 0 6.78353 0.0432943 6.87012 0.129883C6.95671 0.216471 7 0.31901 7 0.4375C7 0.55599 6.95671 0.658529 6.87012 0.745117L1.49707 6.125H13.5625C13.681 6.125 13.7835 6.16829 13.8701 6.25488C13.9567 6.34147 14 6.44401 14 6.5625Z" fill="black" fill-opacity="0.8956"/>
</svg>
