<svg width="16" height="15" viewBox="0 0 16 15" fill="none" xmlns="http://www.w3.org/2000/svg">
<path d="M16 1.96094V10C16 10.276 15.9479 10.5365 15.8438 10.7812C15.7396 11.0208 15.5964 11.2318 15.4141 11.4141C15.2318 11.5964 15.0182 11.7396 14.7734 11.8438C14.5339 11.9479 14.276 12 14 12H11V14H12.5C12.6354 14 12.7526 14.0495 12.8516 14.1484C12.9505 14.2474 13 14.3646 13 14.5C13 14.6354 12.9505 14.7526 12.8516 14.8516C12.7526 14.9505 12.6354 15 12.5 15H3.5C3.36458 15 3.2474 14.9505 3.14844 14.8516C3.04948 14.7526 3 14.6354 3 14.5C3 14.3646 3.04948 14.2474 3.14844 14.1484C3.2474 14.0495 3.36458 14 3.5 14H5V12H2C1.73438 12 1.47917 11.9479 1.23438 11.8438C0.994792 11.7396 0.783854 11.599 0.601562 11.4219C0.419271 11.2448 0.273438 11.0391 0.164062 10.8047C0.0546875 10.5651 0 10.3099 0 10.0391V2C0 1.73438 0.0520833 1.48177 0.15625 1.24219C0.260417 0.997396 0.401042 0.783854 0.578125 0.601562C0.755208 0.419271 0.960938 0.273438 1.19531 0.164062C1.4349 0.0546875 1.6901 0 1.96094 0H14C14.2656 0 14.5182 0.0520833 14.7578 0.15625C15.0026 0.260417 15.2161 0.401042 15.3984 0.578125C15.5807 0.755208 15.7266 0.963542 15.8359 1.20312C15.9453 1.4375 16 1.6901 16 1.96094ZM15 2C15 1.86458 14.974 1.73698 14.9219 1.61719C14.8698 1.49219 14.7969 1.38542 14.7031 1.29688C14.6146 1.20312 14.5078 1.13021 14.3828 1.07812C14.263 1.02604 14.1354 1 14 1H2C1.85938 1 1.72917 1.02604 1.60938 1.07812C1.48958 1.13021 1.38281 1.20312 1.28906 1.29688C1.20052 1.38542 1.13021 1.48958 1.07812 1.60938C1.02604 1.72917 1 1.85938 1 2V10C1 10.1406 1.02604 10.2734 1.07812 10.3984C1.13021 10.5182 1.20052 10.6224 1.28906 10.7109C1.3776 10.7995 1.48177 10.8698 1.60156 10.9219C1.72656 10.974 1.85938 11 2 11H14C14.1406 11 14.2708 10.974 14.3906 10.9219C14.5104 10.8698 14.6146 10.7995 14.7031 10.7109C14.7969 10.6172 14.8698 10.5104 14.9219 10.3906C14.974 10.2708 15 10.1406 15 10V2ZM6 14H10V12H6V14Z" fill="black" fill-opacity="0.8956"/>
</svg>
