<svg width="14" height="14" viewBox="0 0 14 14" fill="none" xmlns="http://www.w3.org/2000/svg">
<path d="M14 7C14 7.64714 13.9157 8.26921 13.7471 8.86621C13.583 9.46322 13.3483 10.0215 13.043 10.541C12.7422 11.056 12.3776 11.5277 11.9492 11.9561C11.5254 12.3799 11.0537 12.7445 10.5342 13.0498C10.0192 13.3506 9.46322 13.5853 8.86621 13.7539C8.26921 13.918 7.64714 14 7 14C6.35286 14 5.73079 13.918 5.13379 13.7539C4.53678 13.5853 3.97852 13.3506 3.45898 13.0498C2.93945 12.7445 2.46777 12.3799 2.04395 11.9561C1.62012 11.5322 1.25553 11.0605 0.950195 10.541C0.649414 10.0215 0.414714 9.46322 0.246094 8.86621C0.0820312 8.26921 0 7.64714 0 7C0 6.35286 0.0820312 5.73079 0.246094 5.13379C0.414714 4.53678 0.649414 3.98079 0.950195 3.46582C1.25553 2.94629 1.62012 2.47461 2.04395 2.05078C2.47233 1.6224 2.94401 1.25781 3.45898 0.957031C3.97852 0.651693 4.53678 0.416992 5.13379 0.25293C5.73079 0.0843099 6.35286 0 7 0C7.50586 0 8.00033 0.0546875 8.4834 0.164062C8.96647 0.26888 9.43132 0.421549 9.87793 0.62207C10.3245 0.822591 10.7461 1.07096 11.1426 1.36719C11.5436 1.66341 11.9128 1.99837 12.25 2.37207V0.4375C12.25 0.31901 12.2933 0.216471 12.3799 0.129883C12.4665 0.0432943 12.569 0 12.6875 0C12.806 0 12.9085 0.0432943 12.9951 0.129883C13.0817 0.216471 13.125 0.31901 13.125 0.4375C13.125 0.710938 13.125 0.986654 13.125 1.26465L13.1318 2.90527C13.1318 3.17871 13.1318 3.45443 13.1318 3.73242C13.1318 3.8099 13.1273 3.88737 13.1182 3.96484C13.109 4.03776 13.0885 4.10612 13.0566 4.16992C13.0247 4.22917 12.9792 4.2793 12.9199 4.32031C12.8607 4.35677 12.7832 4.375 12.6875 4.375H9.1875C9.06901 4.375 8.96647 4.33171 8.87988 4.24512C8.79329 4.15853 8.75 4.05599 8.75 3.9375C8.75 3.81901 8.79329 3.71647 8.87988 3.62988C8.96647 3.54329 9.06901 3.5 9.1875 3.5H12.0244C11.7373 3.08984 11.4069 2.72298 11.0332 2.39941C10.6641 2.07585 10.263 1.80241 9.83008 1.5791C9.39714 1.35124 8.94141 1.17806 8.46289 1.05957C7.98438 0.936523 7.49674 0.875 7 0.875C6.4349 0.875 5.8903 0.947917 5.36621 1.09375C4.84668 1.23958 4.35905 1.44694 3.90332 1.71582C3.45215 1.98014 3.03971 2.29915 2.66602 2.67285C2.29688 3.04199 1.97786 3.45443 1.70898 3.91016C1.44466 4.36133 1.23958 4.84896 1.09375 5.37305C0.947917 5.89258 0.875 6.4349 0.875 7C0.875 7.5651 0.947917 8.1097 1.09375 8.63379C1.23958 9.15332 1.44466 9.64095 1.70898 10.0967C1.97331 10.5479 2.29232 10.9603 2.66602 11.334C3.03971 11.7077 3.45215 12.0267 3.90332 12.291C4.35905 12.5553 4.84668 12.7604 5.36621 12.9062C5.8903 13.0521 6.4349 13.125 7 13.125C7.55143 13.125 8.08464 13.0566 8.59961 12.9199C9.11914 12.7786 9.60449 12.5781 10.0557 12.3184C10.5114 12.054 10.9284 11.7327 11.3066 11.3545C11.6895 10.9762 12.0199 10.5501 12.2979 10.0762C12.5804 9.5931 12.7878 9.09863 12.9199 8.59277C13.0566 8.08691 13.125 7.55599 13.125 7C13.125 6.88151 13.1683 6.77897 13.2549 6.69238C13.3415 6.60579 13.444 6.5625 13.5625 6.5625C13.681 6.5625 13.7835 6.60579 13.8701 6.69238C13.9567 6.77897 14 6.88151 14 7Z" fill="black" fill-opacity="0.8956"/>
</svg>
