<svg width="14" height="14" viewBox="0 0 14 14" fill="none" xmlns="http://www.w3.org/2000/svg">
<path d="M7.4375 13.125C7.31901 13.125 7.21647 13.0817 7.12988 12.9951C7.04329 12.9085 7 12.806 7 12.6875C7 12.569 7.04329 12.4665 7.12988 12.3799L12.5029 7H0.4375C0.31901 7 0.216471 6.95671 0.129883 6.87012C0.0432943 6.78353 0 6.68099 0 6.5625C0 6.44401 0.0432943 6.34147 0.129883 6.25488C0.216471 6.16829 0.31901 6.125 0.4375 6.125H12.5029L7.12988 0.745117C7.04329 0.658529 7 0.55599 7 0.4375C7 0.31901 7.04329 0.216471 7.12988 0.129883C7.21647 0.0432943 7.31901 0 7.4375 0C7.55599 0 7.65853 0.0432943 7.74512 0.129883L13.8496 6.23438C13.8997 6.28451 13.9362 6.33464 13.959 6.38477C13.9863 6.4349 14 6.49414 14 6.5625C14 6.63086 13.9863 6.6901 13.959 6.74023C13.9362 6.79036 13.8997 6.84049 13.8496 6.89062L7.74512 12.9951C7.65853 13.0817 7.55599 13.125 7.4375 13.125Z" fill="black" fill-opacity="0.8956"/>
</svg>
