<svg width="14" height="14" viewBox="0 0 14 14" fill="none" xmlns="http://www.w3.org/2000/svg">
<path d="M13.125 6.5625C13.125 6.68099 13.0817 6.78353 12.9951 6.87012C12.9085 6.95671 12.806 7 12.6875 7C12.569 7 12.4665 6.95671 12.3799 6.87012L7 1.49707V13.5625C7 13.681 6.95671 13.7835 6.87012 13.8701C6.78353 13.9567 6.68099 14 6.5625 14C6.44401 14 6.34147 13.9567 6.25488 13.8701C6.16829 13.7835 6.125 13.681 6.125 13.5625V1.49707L0.745117 6.87012C0.658529 6.95671 0.55599 7 0.4375 7C0.31901 7 0.216471 6.95671 0.129883 6.87012C0.0432943 6.78353 0 6.68099 0 6.5625C0 6.44401 0.0432943 6.34147 0.129883 6.25488L6.23438 0.150391C6.28451 0.10026 6.33236 0.0638021 6.37793 0.0410156C6.42806 0.0136719 6.48958 0 6.5625 0C6.63542 0 6.69466 0.0136719 6.74023 0.0410156C6.79036 0.0638021 6.84049 0.10026 6.89062 0.150391L12.9951 6.25488C13.0817 6.34147 13.125 6.44401 13.125 6.5625Z" fill="black" fill-opacity="0.8956"/>
</svg>
